<svg xmlns="http://www.w3.org/2000/svg" viewBox="0 0 48 48" id="Processor">
  <path fill-rule="evenodd" d="M33,8h-2v-3c0-.55-.45-1-1-1s-1,.45-1,1v3h-2v-3c0-.55-.45-1-1-1s-1,.45-1,1v3h-2v-3c0-.55-.45-1-1-1s-1,.45-1,1v3h-2v-3c0-.55-.45-1-1-1s-1,.45-1,1v3h-2v-3c0-.55-.45-1-1-1s-1,.45-1,1v3h-.97c-1.07,0-2.09,.42-2.85,1.18-.76,.76-1.18,1.78-1.18,2.85v.97h-3c-.55,0-1,.45-1,1s.45,1,1,1h3v2h-3c-.55,0-1,.45-1,1s.45,1,1,1h3v2h-3c-.55,0-1,.45-1,1s.45,1,1,1h3v2h-3c-.55,0-1,.45-1,1s.45,1,1,1h3v2h-3c-.55,0-1,.45-1,1s.45,1,1,1h3v2h-3c-.55,0-1,.45-1,1s.45,1,1,1h3v.97c0,1.07,.42,2.09,1.18,2.85s1.78,1.18,2.85,1.18h.97v3c0,.55,.45,1,1,1s1-.45,1-1v-3h2v3c0,.55,.45,1,1,1s1-.45,1-1v-3h2v3c0,.55,.45,1,1,1s1-.45,1-1v-3h2v3c0,.55,.45,1,1,1s1-.45,1-1v-3h2v3c0,.55,.45,1,1,1s1-.45,1-1v-3h2v3c0,.55,.45,1,1,1s1-.45,1-1v-3h.97c1.07,0,2.09-.42,2.85-1.18,.76-.76,1.18-1.78,1.18-2.85v-.97h3c.55,0,1-.45,1-1s-.45-1-1-1h-3v-2h3c.55,0,1-.45,1-1s-.45-1-1-1h-3v-2h3c.55,0,1-.45,1-1s-.45-1-1-1h-3v-2h3c.55,0,1-.45,1-1s-.45-1-1-1h-3v-2h3c.55,0,1-.45,1-1s-.45-1-1-1h-3v-2h3c.55,0,1-.45,1-1s-.45-1-1-1h-3v-.97c0-1.07-.42-2.09-1.18-2.85-.76-.76-1.78-1.18-2.85-1.18h-.97v-3c0-.55-.45-1-1-1s-1,.45-1,1v3h0Zm-20.97,2h23.94c.54,0,1.06,.21,1.44,.59,.38,.38,.59,.9,.59,1.44v23.94c0,.54-.21,1.06-.59,1.44-.38,.38-.9,.59-1.44,.59H12.03c-.54,0-1.06-.21-1.44-.59-.38-.38-.59-.9-.59-1.44V12.03c0-.54,.21-1.06,.59-1.44,.38-.38,.9-.59,1.44-.59h0Zm24.97,2c0-.55-.45-1-1-1H12c-.55,0-1,.45-1,1v24c0,.55,.45,1,1,1h24c.55,0,1-.45,1-1V12h0Zm-2,1v22H13V13h22Zm-14,11h-1v-1c0-.55-.45-1-1-1s-1,.45-1,1v1c-.55,0-1,.45-1,1h-1c-.55,0-1,.45-1,1s.45,1,1,1h1v1h-1c-.55,0-1,.45-1,1s.45,1,1,1h1c0,.55,.45,1,1,1v1c0,.55,.45,1,1,1s1-.45,1-1v-1h1v1c0,.55,.45,1,1,1s1-.45,1-1v-1c.55,0,1-.45,1-1h1c.55,0,1-.45,1-1s-.45-1-1-1h-1v-1h1c.55,0,1-.45,1-1s-.45-1-1-1h-1c0-.55-.45-1-1-1v-1c0-.55-.45-1-1-1s-1,.45-1,1v1h0Zm12-1.5c0-.55-.45-1-1-1h-3.5c-.55,0-1,.45-1,1v9.5c0,.55,.45,1,1,1h3.5c.55,0,1-.45,1-1v-9.5h0Zm-2,1v7.5h-1.5v-7.5h1.5Zm-12,2.5h0v3h0s3,0,3,0h0v-3h-3Zm11.25-11c-1.52,0-2.75,1.23-2.75,2.75s1.23,2.75,2.75,2.75,2.75-1.23,2.75-2.75-1.23-2.75-2.75-2.75h0Zm-10.25,1c0-.55-.45-1-1-1h-3c-.55,0-1,.45-1,1v3c0,.55,.45,1,1,1h3c.55,0,1-.45,1-1v-3h0Zm6,0c0-.55-.45-1-1-1h-3c-.55,0-1,.45-1,1v3c0,.55,.45,1,1,1h3c.55,0,1-.45,1-1v-3h0Zm4.25,1c.41,0,.75,.34,.75,.75s-.34,.75-.75,.75-.75-.34-.75-.75,.34-.75,.75-.75h0Zm-12.25,0v1h-1v-1h1Zm6,0v1h-1v-1h1Z" fill="#FFDB6E" class="color000000 svgShape"></path>
</svg>
