<svg xmlns="http://www.w3.org/2000/svg" viewBox="0 0 64 64" id="Soldering">
  <path d="M46.17,54.17A4,4,0,0,0,49,61h6V53H49A4.025,4.025,0,0,0,46.17,54.17Z" fill="#FFDB6E" class="color000000 svgShape"></path>
  <path d="M60,36.46V42a3.009,3.009,0,0,1-3,3H37.5a6.5,6.5,0,0,0,0,13h5.59A5.47,5.47,0,0,1,43,57a5.551,5.551,0,0,1,.09-1H37.5a4.5,4.5,0,0,1,0-9H57a5,5,0,0,0,5-5V32A5.947,5.947,0,0,1,60,36.46Z" fill="#FFDB6E" class="color000000 svgShape"></path>
  <rect width="5" height="2" x="57" y="54" fill="#FFDB6E" class="color000000 svgShape"></rect>
  <rect width="5" height="2" x="57" y="58" fill="#FFDB6E" class="color000000 svgShape"></rect>
  <path d="M9,20a1,1,0,0,1,1-1h4V17H10a3,3,0,0,0-3,3,1,1,0,0,1-1,1,3,3,0,0,0-3,3v3H5V24a1,1,0,0,1,1-1A3,3,0,0,0,9,20Z" fill="#FFDB6E" class="color000000 svgShape"></path>
  <path d="M12.5,22H18V20H12.5A2.5,2.5,0,0,0,10,22.5a.5.5,0,0,1-.5.5A2.5,2.5,0,0,0,7,25.5V27H9V25.5a.5.5,0,0,1,.5-.5A2.5,2.5,0,0,0,12,22.5.5.5,0,0,1,12.5,22Z" fill="#FFDB6E" class="color000000 svgShape"></path>
  <rect width="4" height="2" x="16" y="17" fill="#FFDB6E" class="color000000 svgShape"></rect>
  <polygon points="49 28 35 28 35 31 38 31 38 33 35 33 35 36 49 36 49 28" fill="#FFDB6E" class="color000000 svgShape"></polygon>
  <rect width="2" height="8" x="51" y="28" fill="#FFDB6E" class="color000000 svgShape"></rect>
  <polygon points="33 37 33 27 33 25 31 25 31 29 31 35 31 39 33 39 33 37" fill="#FFDB6E" class="color000000 svgShape"></polygon>
  <path d="M26,32a2,2,0,0,1-2-2H18a2,2,0,0,1-4,0H12v4h7a2,2,0,0,1,4,0h6V30H28A2,2,0,0,1,26,32Z" fill="#FFDB6E" class="color000000 svgShape"></path>
  <polygon points="7.414 33 10 33 10 31 5.414 31 7.414 33" fill="#FFDB6E" class="color000000 svgShape"></polygon>
  <path d="M60,32a4,4,0,0,0-4-4H55v8h1A4,4,0,0,0,60,32Z" fill="#FFDB6E" class="color000000 svgShape"></path>
</svg>
